<svg id="svg" version="1.1" xmlns="http://www.w3.org/2000/svg" xmlns:xlink="http://www.w3.org/1999/xlink"><g id="svgg"><path id="path0" d="M0.000 200.000 L 0.000 400.000 200.000 400.000 L 400.000 400.000 400.000 200.000 L 400.000 0.000 200.000 0.000 L 0.000 0.000 0.000 200.000 M384.800 200.000 L 384.800 384.800 200.000 384.800 L 15.200 384.800 15.200 200.000 L 15.200 15.200 200.000 15.200 L 384.800 15.200 384.800 200.000 M290.586 106.280 C 287.461 107.176,271.337 120.895,269.934 123.852 C 268.141 127.630,268.837 130.111,273.848 137.817 C 297.976 174.921,302.312 203.985,288.796 238.010 C 274.935 272.904,236.828 313.221,194.183 338.110 C 182.974 344.652,181.948 346.076,183.285 353.233 C 185.011 362.469,193.276 363.900,226.400 360.700 C 301.697 353.423,365.324 284.821,361.341 215.206 C 358.950 173.418,342.762 149.540,315.299 147.293 L 309.268 146.800 306.756 136.800 C 305.374 131.300,303.439 123.380,302.454 119.200 C 300.270 109.922,296.254 104.398,292.626 105.680 C 292.502 105.724,291.584 105.994,290.586 106.280 M270.551 191.934 C 241.620 218.748,198.342 231.969,134.917 233.369 C 109.843 233.923,110.202 233.805,107.637 242.278 C 105.796 248.357,106.592 250.946,111.699 255.490 C 119.738 262.644,137.333 272.971,146.532 275.934 C 150.018 277.058,152.724 276.452,170.800 270.503 C 207.772 258.336,236.084 242.064,254.893 222.172 C 262.105 214.545,267.755 206.455,272.189 197.410 C 278.032 185.488,277.918 185.107,270.551 191.934 M279.662 208.966 C 260.445 241.341,223.013 266.683,169.600 283.481 C 157.923 287.154,141.956 291.200,139.142 291.200 C 133.001 291.200,129.511 304.796,134.335 309.930 C 142.619 318.749,185.616 329.216,193.818 324.411 C 224.033 306.710,261.693 267.521,274.388 240.571 C 283.663 220.879,287.994 194.931,279.662 208.966 " stroke="none" fill="#000000" fill-rule="evenodd"></path><path id="path1" d="M15.200 200.000 L 15.200 384.800 200.000 384.800 L 384.800 384.800 384.800 200.000 L 384.800 15.200 200.000 15.200 L 15.200 15.200 15.200 200.000 M295.563 106.733 C 299.236 108.268,300.359 110.298,302.454 119.200 C 303.439 123.380,305.374 131.300,306.756 136.800 L 309.268 146.800 315.299 147.293 C 342.762 149.540,358.950 173.418,361.341 215.206 C 365.324 284.821,301.697 353.423,226.400 360.700 C 193.276 363.900,185.011 362.469,183.285 353.233 C 181.948 346.076,182.974 344.652,194.183 338.110 C 256.277 301.870,295.576 248.349,295.594 200.000 C 295.603 177.121,291.177 164.465,273.848 137.817 C 268.837 130.111,268.141 127.630,269.934 123.852 C 271.337 120.895,287.461 107.176,290.586 106.280 C 291.584 105.994,292.502 105.724,292.626 105.680 C 292.750 105.636,294.072 106.110,295.563 106.733 M276.012 189.167 C 264.832 218.573,237.250 243.282,195.600 261.204 C 186.511 265.116,181.768 266.894,170.800 270.503 C 152.724 276.452,150.018 277.058,146.532 275.934 C 137.333 272.971,119.738 262.644,111.699 255.490 C 106.592 250.946,105.796 248.357,107.637 242.278 C 110.202 233.805,109.843 233.923,134.917 233.369 C 198.342 231.969,241.620 218.748,270.551 191.934 C 276.142 186.752,277.119 186.258,276.012 189.167 M283.228 213.048 C 277.977 247.371,248.904 285.252,202.000 318.883 C 191.527 326.392,192.718 326.058,180.411 324.946 C 161.858 323.271,140.252 316.229,134.335 309.930 C 129.511 304.796,133.001 291.200,139.142 291.200 C 141.956 291.200,157.923 287.154,169.600 283.481 C 223.013 266.683,260.445 241.341,279.662 208.966 C 284.202 201.318,284.901 202.117,283.228 213.048 " stroke="none" fill="#ffe400" fill-rule="evenodd"></path></g></svg>