<?xml version="1.0" encoding="UTF-8" ?>
<!DOCTYPE svg PUBLIC "-//W3C//DTD SVG 1.1//EN" "http://www.w3.org/Graphics/SVG/1.1/DTD/svg11.dtd">
<svg width="256pt" height="256pt" viewBox="0 0 256 256" version="1.1" xmlns="http://www.w3.org/2000/svg">
<path fill="#ffffff" d=" M 0.00 0.00 L 256.00 0.00 L 256.00 29.19 C 254.88 26.51 253.60 23.62 251.00 22.05 C 248.58 20.39 245.54 20.42 242.74 20.15 C 242.77 16.69 242.93 13.01 241.18 9.88 C 239.07 5.49 234.63 2.79 230.13 1.37 C 227.11 1.02 224.07 1.25 221.04 1.21 C 157.34 1.20 93.65 1.23 29.95 1.20 C 24.91 1.28 20.09 4.14 16.76 7.81 C 13.29 11.63 13.19 17.03 13.38 21.89 C 7.34 22.32 2.23 26.65 0.00 32.15 L 0.00 0.00 Z" />
<path fill="#4c4c4c" d=" M 16.76 7.81 C 20.09 4.14 24.91 1.28 29.95 1.20 C 93.65 1.23 157.34 1.20 221.04 1.21 C 224.07 1.25 227.11 1.02 230.13 1.37 C 234.63 2.79 239.07 5.49 241.18 9.88 C 242.93 13.01 242.77 16.69 242.74 20.15 C 242.94 62.43 242.87 104.71 242.88 146.99 C 242.75 169.06 243.17 191.14 242.55 213.19 C 242.38 205.15 242.51 197.11 242.05 189.08 C 240.25 195.26 234.74 200.52 228.03 200.38 C 162.03 200.42 96.02 200.37 30.02 200.41 C 22.72 200.68 16.40 195.33 13.96 188.69 C 13.65 196.82 13.67 204.96 13.68 213.09 C 12.95 207.09 13.50 201.03 13.30 195.01 C 13.30 137.30 13.23 79.59 13.38 21.89 C 13.19 17.03 13.29 11.63 16.76 7.81 Z" />
<path fill="#d9d9d9" d=" M 242.74 20.15 C 245.54 20.42 248.58 20.39 251.00 22.05 C 253.60 23.62 254.88 26.51 256.00 29.19 L 256.00 231.50 C 255.08 236.54 253.24 241.88 248.98 245.07 C 245.55 247.65 241.00 247.00 236.99 247.12 C 165.65 247.06 94.31 247.11 22.97 247.10 C 12.36 247.30 3.89 238.74 0.00 229.53 L 0.00 32.15 C 2.23 26.65 7.34 22.32 13.38 21.89 C 13.23 79.59 13.30 137.30 13.30 195.01 C 13.50 201.03 12.95 207.09 13.68 213.09 C 15.28 220.46 22.35 226.31 29.94 226.19 C 96.01 226.16 162.08 226.21 228.15 226.17 C 235.30 226.11 241.45 220.10 242.55 213.19 C 243.17 191.14 242.75 169.06 242.88 146.99 C 242.87 104.71 242.94 62.43 242.74 20.15 Z" />
<path fill="#ff8100" d=" M 99.48 58.50 C 108.68 48.05 123.66 44.42 137.08 46.34 C 147.58 47.72 157.48 52.69 165.10 60.00 C 160.91 65.14 156.75 70.28 152.63 75.47 C 144.95 69.31 134.81 65.10 124.88 67.50 C 120.41 68.34 116.36 72.31 116.74 77.08 C 117.17 81.34 121.05 83.90 124.62 85.50 C 132.74 89.15 141.13 92.16 149.30 95.71 C 156.05 98.78 162.37 103.66 165.44 110.59 C 169.92 120.68 168.78 133.20 162.12 142.08 C 157.07 148.93 149.33 153.39 141.18 155.46 C 122.68 160.02 102.04 154.74 88.09 141.76 C 88.12 140.61 89.38 139.89 89.95 138.97 C 93.96 134.31 97.82 129.53 101.78 124.84 C 109.64 131.40 119.52 136.47 129.99 136.06 C 134.88 135.79 140.98 134.21 142.63 128.94 C 144.50 124.45 141.73 119.47 137.57 117.51 C 128.74 113.03 119.33 109.81 110.38 105.58 C 103.96 102.42 98.24 97.45 95.09 90.93 C 90.02 80.53 91.62 67.11 99.48 58.50 Z" />
<path fill="#262626" d=" M 228.03 200.38 C 234.74 200.52 240.25 195.26 242.05 189.08 C 242.51 197.11 242.38 205.15 242.55 213.19 C 241.45 220.10 235.30 226.11 228.15 226.17 C 162.08 226.21 96.01 226.16 29.94 226.19 C 22.35 226.31 15.28 220.46 13.68 213.09 C 13.67 204.96 13.65 196.82 13.96 188.69 C 16.40 195.33 22.72 200.68 30.02 200.41 C 96.02 200.37 162.03 200.42 228.03 200.38 Z" />
<path fill="#999999" d=" M 0.00 229.53 C 3.89 238.74 12.36 247.30 22.97 247.10 C 94.31 247.11 165.65 247.06 236.99 247.12 C 241.00 247.00 245.55 247.65 248.98 245.07 C 253.24 241.88 255.08 236.54 256.00 231.50 L 256.00 239.27 C 254.76 245.46 251.79 251.95 245.61 254.53 C 242.45 255.08 239.21 254.71 236.03 254.79 C 166.01 254.79 96.00 254.76 26.00 254.80 C 22.79 254.70 19.31 255.34 16.39 253.67 C 8.57 250.23 1.59 243.57 0.00 234.90 L 0.00 229.53 Z" />
<path fill="#ffffff" d=" M 0.00 234.90 C 1.59 243.57 8.57 250.23 16.39 253.67 C 19.31 255.34 22.79 254.70 26.00 254.80 C 96.00 254.76 166.01 254.79 236.03 254.79 C 239.21 254.71 242.45 255.08 245.61 254.53 C 251.79 251.95 254.76 245.46 256.00 239.27 L 256.00 256.00 L 0.00 256.00 L 0.00 234.90 Z" />
</svg>
