<svg width="500" height="500" xmlns="http://www.w3.org/2000/svg"><g fill-rule="evenodd"><path d="M0 200v200h400V0H0v200m384.8 0v184.8H15.2V15.2h369.6V200m-94.214-93.72c-3.125.896-19.249 14.615-20.652 17.572-1.793 3.778-1.097 6.259 3.914 13.965 24.128 37.104 28.464 66.168 14.948 100.193-13.861 34.894-51.968 75.211-94.613 100.1-11.209 6.542-12.235 7.966-10.898 15.123 1.726 9.236 9.991 10.667 43.115 7.467 75.297-7.277 138.924-75.879 134.941-145.494-2.391-41.788-18.579-65.666-46.042-67.913l-6.031-.493-2.512-10c-1.382-5.5-3.317-13.42-4.302-17.6-2.184-9.278-6.2-14.802-9.828-13.52-.124.044-1.042.314-2.04.6m-20.035 85.654c-28.931 26.814-72.209 40.035-135.634 41.435-25.074.554-24.715.436-27.28 8.909-1.841 6.079-1.045 8.668 4.062 13.212 8.039 7.154 25.634 17.481 34.833 20.444 3.486 1.124 6.192.518 24.268-5.431 36.972-12.167 65.284-28.439 84.093-48.331 7.212-7.627 12.862-15.717 17.296-24.762 5.843-11.922 5.729-12.303-1.638-5.476m9.111 17.032c-19.217 32.375-56.649 57.717-110.062 74.515-11.677 3.673-27.644 7.719-30.458 7.719-6.141 0-9.631 13.596-4.807 18.73 8.284 8.819 51.281 19.286 59.483 14.481 30.215-17.701 67.875-56.89 80.57-83.84 9.275-19.692 13.606-45.64 5.274-31.605"/><path d="M15.2 200v184.8h369.6V15.2H15.2V200m280.363-93.267c3.673 1.535 4.796 3.565 6.891 12.467.985 4.18 2.92 12.1 4.302 17.6l2.512 10 6.031.493c27.463 2.247 43.651 26.125 46.042 67.913 3.983 69.615-59.644 138.217-134.941 145.494-33.124 3.2-41.389 1.769-43.115-7.467-1.337-7.157-.311-8.581 10.898-15.123 62.094-36.24 101.393-89.761 101.411-138.11.009-22.879-4.417-35.535-21.746-62.183-5.011-7.706-5.707-10.187-3.914-13.965 1.403-2.957 17.527-16.676 20.652-17.572a93.659 93.659 0 0 0 2.04-.6c.124-.044 1.446.43 2.937 1.053m-19.551 82.434c-11.18 29.406-38.762 54.115-80.412 72.037-9.089 3.912-13.832 5.69-24.8 9.299-18.076 5.949-20.782 6.555-24.268 5.431-9.199-2.963-26.794-13.29-34.833-20.444-5.107-4.544-5.903-7.133-4.062-13.212 2.565-8.473 2.206-8.355 27.28-8.909 63.425-1.4 106.703-14.621 135.634-41.435 5.591-5.182 6.568-5.676 5.461-2.767m7.216 23.881c-5.251 34.323-34.324 72.204-81.228 105.835-10.473 7.509-9.282 7.175-21.589 6.063-18.553-1.675-40.159-8.717-46.076-15.016-4.824-5.134-1.334-18.73 4.807-18.73 2.814 0 18.781-4.046 30.458-7.719 53.413-16.798 90.845-42.14 110.062-74.515 4.54-7.648 5.239-6.849 3.566 4.082" fill="#ffe400"/></g></svg>