<svg id="Layer_1" xmlns="http://www.w3.org/2000/svg" viewBox="0 0 64 64"><style>.st0{fill:#c1272d}.st1{fill:#efcca3}.st2{fill:#ed1c24}.st3{fill:#ccac8d}.st4{fill:#fff}.st5{fill:#ff931e}.st6{fill:#ffb81e}.st7{fill:#56332b}.st8{fill:#442823}.st9{fill:#7f4a41}.st10{fill:#331712}.st11{fill:#fc6}.st12{fill:#ccc}.st13{fill:#b3b3b3}.st14{fill:#989898}.st15{fill:#323232}.st16{fill:#1e1e1e}.st17{fill:#4c4c4c}.st18{fill:#e6e6e6}.st19{fill:#606060}</style><path class="st7" d="M-38.6 28.9s11.6 9.7 15 20.9 2 24.8 4.6 26.5c3.7 2.4 7.9-11.9 9.3-13.4 2.2-2.4 9.5-8.5 10-9.6.5-1.1-14.8-17.8-21.5-21.1-8.1-3.8-18.1-4.1-17.4-3.3z"/><path class="st1" d="M50.5 31.5c-.1-1.8.4-3.5-.4-4.9-2-3.5-7-5.5-17-5.5V21h-.7.7v.1c-11 0-15.7 2-17.7 5.5-.8 1.4-.8 3-.9 4.9-.1 1.5-.8 3.1-.5 4.7.3 2.2.5 4.4.8 6.4.3 1.7 2.7 3 3 4.6.6 4.3 4.4 6.3 15.4 6.3v.5h-.7.5v-.5c10 0 14.2-2 14.8-6.3.2-1.6 2.2-2.9 2.5-4.6.3-2 .4-4.2.7-6.4.3-1.7-.5-3.3-.5-4.7z"/><path class="st3" d="M32.6 33.1c1.8 0 3 1.1 4.2 2.2 1.4 1.2 3.7 2 4.7 3.1 1 1 2.2 2.1 2.7 3.8.5 1.6.6 3.7.6 4.3 0 .5.3.4 1.1 0 2-1 4.2-3.6 4.2-3.6-.3 1.7-2.4 3.2-2.6 4.8-.6 4.3-4.8 6.4-15.1 6.4h.6"/><path class="st3" d="M39 29.7c.4 1.3 1.7 5.8-.9 4.3 0 0 1.1.6 1.8 3s2.5 2.7 2.5 2.7 2.8.5 4.9-1.2c1.8-1.5 2.1-4.2 1.3-6.3-.7-2-2.1-2.7-4.1-3.1-1.9-.5-5.9-.9-5.5.6z"/><circle cx="44.1" cy="34.5" r="3.7"/><circle class="st4" cx="43.1" cy="32.8" r="1"/><path class="st1" d="M38.4 34.3s3.3 2.3 5.2 4.5c1.8 2.3 1.8 2.7 1.8 2.7l-1.3.6s-1.8-3.5-4.1-4.8-2.6-2.4-2.6-2.4l1-.6z"/><path class="st3" d="M32.7 33.1c-1.8 0-3.3 1.1-4.5 2.2-1.4 1.2-3.9 2-4.8 3.1-1 1-2.3 2.1-2.8 3.8-.5 1.6-.6 3.7-.6 4.3 0 .5.1.6-1.2 0-2-.9-4.2-3.6-4.2-3.6.3 1.7 2.4 3.2 2.6 4.8.6 4.2 4.8 6.3 15.1 6.3h.7"/><path class="st7" d="M42.3 40c-2-2.5-5.3-5-9.8-5-4.5 0-7.7 2.5-9.8 5-2.1 2.6-2 3.7-2 6.1 0 8.9 3.1 6.2 5.2 7.3 2.1 1 4.3.6 6.5.6 2.3 0 4.4.4 6.5-.6 2.1-1.1 5.2 1.6 5.2-7.3.2-2.5.3-3.6-1.8-6.1z"/><path class="st8" d="M32.3 37.5s-.3 4.1-.9 4.9l1.1-.3-.2-4.6z"/><path class="st8" d="M32.6 37.5s.3 4.1.9 4.9l-1.1-.3.2-4.6z"/><path class="st7" d="M29.1 36.5c-.4-1 1.1-2.6 3.5-2.6s3.9 1.6 3.5 2.6c-.4 1-2 1.3-3.5 1.3-1.6 0-3.1-.3-3.5-1.3z"/><path d="M32.6 37.5c0-.2 1.4-.2 2.2-.7 0 0-1.6.5-1.9.3-.3-.2-.4-.7-.4-.7s-.1.5-.4.7c-.3.2-2.1-.3-2.1-.3s2.4.6 2.3.7v.8c0 1.1 0 3.7.2 3.9.3.4.2-2.8.2-3.9-.1-.3-.1-.6-.1-.8z"/><path class="st9" d="M32.6 43.2c.7 0 2 .5 3.1 1.3-1.1-1.2-2.4-2.1-3.1-2.1-.8 0-2.4.9-3.5 2.3 1.2-1 2.7-1.5 3.5-1.5z"/><path class="st8" d="M32.4 50.6c-1.6 0-3.2-.5-4.6-.9-.3-.1-.6.1-.9 0-2.6-.8-4.8-2.3-6.1-4.1v.4c0 8.9 3.1 6.2 5.2 7.3 2.1 1 4.3.6 6.5.6 2.3 0 4.4.4 6.5-.6 2.1-1.1 5.2 1.6 5.2-7.3v-.9c-1.2 2-3.5 3.6-6.2 4.5-.3.1-.8-.1-1.1-.1-1.5.5-2.8 1.1-4.5 1.1z"/><path class="st8" d="M28.3 45.8s-1.1 3.2-.3 4.6l-1-.4c0-.1.8-3.2 1.3-4.2zm8.4 0s1.1 3.2.3 4.6l1-.4c0-.1-.7-3.2-1.3-4.2z"/><path class="st3" d="M25.7 29.7c-.4 1.3-1.7 5.8.9 4.3 0 0-1.1.6-1.8 3s-2.5 2.7-2.5 2.7-2.8.5-4.9-1.2c-1.8-1.5-2.1-4.2-1.3-6.3.7-2 2.1-2.7 4.1-3.1 1.9-.5 5.9-.9 5.5.6z"/><path d="M32.5 42.4c1.1 0 4.7 2.4 4.7 5.5v-.2c0-3.1-2.9-5.6-4.7-5.6-1.9 0-4.7 2.5-4.7 5.6v.2c.1-3.1 3.6-5.5 4.7-5.5z"/><ellipse transform="rotate(-14.465 33.287 35.91)" class="st10" cx="33.3" cy="35.9" rx=".3" ry=".6"/><ellipse transform="rotate(17.235 31.458 35.906)" class="st10" cx="31.5" cy="35.9" rx=".3" ry=".6"/><circle cx="20.8" cy="34.5" r="3.7"/><circle class="st4" cx="21.8" cy="32.8" r="1"/><path class="st9" d="M33.6 34.5s-1 .4-1.2.5c-.3 0-1.2-.5-1.2-.5h2.4z"/><path class="st1" d="M26.3 34.3s-3.3 2.3-5.2 4.5c-1.8 2.3-1.8 2.7-1.8 2.7l1.3.6s1.8-3.5 4.1-4.8 2.6-2.4 2.6-2.4l-1-.6z"/><path class="st3" d="M19 27.6s-1.1 3.1-3.7 4.4c0 0 3.9-.5 3.7-4.4zm26.5 0s1.1 3.1 3.7 4.4c0 0-3.9-.5-3.7-4.4zm-6.9 5.8s-2.6-2.6-5.9-2.7h-.1.4c-4 .1-5.8 2.7-5.8 2.7 2.9-2 4.8-2 5.8-2 0 0 2.6 0 5.6 2zm-3-5.5s-1.4-1.8-3-1.8h-.1.4c-2 0-2.9 1.8-2.9 1.8 1.5-1.4 2.9-1.3 2.9-1.3.1 0 1.3-.1 2.7 1.3zm-14.8 13s-2 1-3.4.4H17c-1-.7-1.7-2.9-1.7-2.9s1.4 3.7 5.5 2.5zm23.2 0s2 1 3.4.4H47c2-.7 2.1-2.9 2.1-2.9S48 42.1 44 40.9z"/><path class="st3" d="M23.1 27.4c1.1-.2 2.9-.3 4.3.2 1.8.6.4 3 .7 3.1.4.1.9-1.6 4.3-1.4 3.4.2 3.8 1.7 4.3 1.4.5-.2-.5-4.2 4.7-3.3 0 0-5.3-1.4-5.1 2.4 0 0-3.1-2.4-7.4-.2 0 0 1.1-3.7-5.8-2.2zm18.7 0zm0 0zm-20.1-5.2s-4.6 5.7-5.2 7.9c-.7 2.2-1.2 11.4-1.8 12.7l-2.1-9 3.9-9.4 5.2-2.2zm21.4 0s4.6 5.7 5.2 7.9c.7 2.2 1.2 11.4 1.8 12.7l2.1-9-3.9-9.4-5.2-2.2z"/><path class="st7" d="M42.8 22.2s4.9 4.1 6.3 8.8c1.4 4.7.8 10.5 1.9 11.2 1.6 1 3.3-5 3.9-5.6.9-1 4-3.6 4.2-4.1.2-.5-6.2-7.5-9.1-8.9-3.2-1.6-7.4-1.8-7.2-1.4z"/><path class="st8" d="M47 24.7s5.8 7.4 5.7 16.6l2.3-4.7c0-.1-2-6.1-8-11.9z"/><path class="st7" d="M21.7 22.2s-4.9 4.1-6.3 8.8-.8 10.5-1.9 11.2c-1.6 1-3.3-5-3.9-5.6-.9-1-4-3.6-4.2-4.1-.2-.5 6.2-7.5 9.1-8.9 3.2-1.6 7.4-1.8 7.2-1.4z"/><path class="st8" d="M17.5 24.7s-5.8 7.4-5.7 16.6l-2.3-4.7c0-.1 2-6.1 8-11.9z"/><path class="st3" d="M14.3 41.4s.4 2.3 1.1 3c.7.7.2-.6.2-.6s-.7-.4-.6-3.3-.7.9-.7.9zm36 0s-.4 2.3-1.1 3c-.7.7-.2-.6-.2-.6s.7-.4.6-3.3c-.1-2.8.7.9.7.9z"/><circle class="st8" cx="28.2" cy="39.7" r=".3"/><circle class="st8" cx="26.2" cy="41.8" r=".3"/><circle class="st8" cx="25.6" cy="39.7" r=".3"/><circle class="st8" cx="36.4" cy="39.7" r=".3"/><circle class="st8" cx="38.3" cy="41.8" r=".3"/><circle class="st8" cx="38.9" cy="39.7" r=".3"/></svg>