<svg width="256pt" height="256pt" viewBox="0 0 256 256" xmlns="http://www.w3.org/2000/svg"><path fill="#fff" d="M0 0h256v29.19c-1.12-2.68-2.4-5.57-5-7.14-2.42-1.66-5.46-1.63-8.26-1.9.03-3.46.19-7.14-1.56-10.27-2.11-4.39-6.55-7.09-11.05-8.51-3.02-.35-6.06-.12-9.09-.16-63.7-.01-127.39.02-191.09-.01-5.04.08-9.86 2.94-13.19 6.61-3.47 3.82-3.57 9.22-3.38 14.08C7.34 22.32 2.23 26.65 0 32.15V0z"/><path fill="#4c4c4c" d="M16.76 7.81c3.33-3.67 8.15-6.53 13.19-6.61 63.7.03 127.39 0 191.09.01 3.03.04 6.07-.19 9.09.16 4.5 1.42 8.94 4.12 11.05 8.51 1.75 3.13 1.59 6.81 1.56 10.27.2 42.28.13 84.56.14 126.84-.13 22.07.29 44.15-.33 66.2-.17-8.04-.04-16.08-.5-24.11-1.8 6.18-7.31 11.44-14.02 11.3-66 .04-132.01-.01-198.01.03-7.3.27-13.62-5.08-16.06-11.72-.31 8.13-.29 16.27-.28 24.4-.73-6-.18-12.06-.38-18.08 0-57.71-.07-115.42.08-173.12-.19-4.86-.09-10.26 3.38-14.08z"/><path fill="#d9d9d9" d="M242.74 20.15c2.8.27 5.84.24 8.26 1.9 2.6 1.57 3.88 4.46 5 7.14V231.5c-.92 5.04-2.76 10.38-7.02 13.57-3.43 2.58-7.98 1.93-11.99 2.05-71.34-.06-142.68-.01-214.02-.02-10.61.2-19.08-8.36-22.97-17.57V32.15c2.23-5.5 7.34-9.83 13.38-10.26-.15 57.7-.08 115.41-.08 173.12.2 6.02-.35 12.08.38 18.08 1.6 7.37 8.67 13.22 16.26 13.1 66.07-.03 132.14.02 198.21-.02 7.15-.06 13.3-6.07 14.4-12.98.62-22.05.2-44.13.33-66.2-.01-42.28.06-84.56-.14-126.84z"/><path fill="#ff8100" d="M99.48 58.5c9.2-10.45 24.18-14.08 37.6-12.16 10.5 1.38 20.4 6.35 28.02 13.66-4.19 5.14-8.35 10.28-12.47 15.47-7.68-6.16-17.82-10.37-27.75-7.97-4.47.84-8.52 4.81-8.14 9.58.43 4.26 4.31 6.82 7.88 8.42 8.12 3.65 16.51 6.66 24.68 10.21 6.75 3.07 13.07 7.95 16.14 14.88 4.48 10.09 3.34 22.61-3.32 31.49-5.05 6.85-12.79 11.31-20.94 13.38-18.5 4.56-39.14-.72-53.09-13.7.03-1.15 1.29-1.87 1.86-2.79 4.01-4.66 7.87-9.44 11.83-14.13 7.86 6.56 17.74 11.63 28.21 11.22 4.89-.27 10.99-1.85 12.64-7.12 1.87-4.49-.9-9.47-5.06-11.43-8.83-4.48-18.24-7.7-27.19-11.93-6.42-3.16-12.14-8.13-15.29-14.65-5.07-10.4-3.47-23.82 4.39-32.43z"/><path fill="#262626" d="M228.03 200.38c6.71.14 12.22-5.12 14.02-11.3.46 8.03.33 16.07.5 24.11-1.1 6.91-7.25 12.92-14.4 12.98-66.07.04-132.14-.01-198.21.02-7.59.12-14.66-5.73-16.26-13.1-.01-8.13-.03-16.27.28-24.4 2.44 6.64 8.76 11.99 16.06 11.72 66-.04 132.01.01 198.01-.03z"/><path fill="#999" d="M0 229.53c3.89 9.21 12.36 17.77 22.97 17.57 71.34.01 142.68-.04 214.02.02 4.01-.12 8.56.53 11.99-2.05 4.26-3.19 6.1-8.53 7.02-13.57v7.77c-1.24 6.19-4.21 12.68-10.39 15.26-3.16.55-6.4.18-9.58.26-70.02 0-140.03-.03-210.03.01-3.21-.1-6.69.54-9.61-1.13-7.82-3.44-14.8-10.1-16.39-18.77v-5.37z"/><path fill="#fff" d="M0 234.9c1.59 8.67 8.57 15.33 16.39 18.77 2.92 1.67 6.4 1.03 9.61 1.13 70-.04 140.01-.01 210.03-.01 3.18-.08 6.42.29 9.58-.26 6.18-2.58 9.15-9.07 10.39-15.26V256H0v-21.1z"/></svg>