<?xml version="1.0" encoding="utf-8"?>
<!-- Generator: Adobe Illustrator 26.0.3, SVG Export Plug-In . SVG Version: 6.00 Build 0)  -->
<svg version="1.1" id="Layer_1" xmlns="http://www.w3.org/2000/svg" xmlns:xlink="http://www.w3.org/1999/xlink" x="0px" y="0px"
	 viewBox="0 0 353.81 566.93" style="enable-background:new 0 0 353.81 566.93;" xml:space="preserve">
<style type="text/css">
	.st0{fill:#121733;}
	.st1{fill:#C04180;}
</style>
<g>
	<path class="st0" d="M54.39,535.99l135-135c5.55-5.55,1.62-15.03-6.22-15.03h-135c-4.86,0-8.8,3.94-8.8,8.8v135
		C39.36,537.6,48.84,541.53,54.39,535.99z"/>
	<path class="st1" d="M140.59,30.1H48.16c-4.86,0-8.8,3.94-8.8,8.8v63.16c0,4.86,3.94,8.8,8.8,8.8h92.43c4.86,0,8.8-3.94,8.8-8.8
		V38.9C149.4,34.04,145.46,30.1,140.59,30.1z"/>
	<path class="st0" d="M204.42,37.15v92.42c0,4.86-3.94,8.8-8.8,8.8H48.17c-4.86,0-8.8,3.94-8.8,8.8v202.48c0,4.86,3.94,8.8,8.8,8.8
		h257.48c4.86,0,8.8-3.94,8.8-8.8V37.15c0-4.86-3.94-8.8-8.8-8.8h-92.42C208.36,28.35,204.42,32.29,204.42,37.15z M135.63,248.09
		h-27.51V193.4h27.51V248.09z M245.6,248.09h-27.36V193.4h27.36V248.09z"/>
</g>
</svg>
